<svg version="1.2" xmlns="http://www.w3.org/2000/svg" viewBox="0 0 24 24" width="24" height="24">
	<title>house-floor-svgrepo-com (1)-svg</title>
	<style>
		.s0 { fill: #ffffff;stroke: #000000;stroke-linecap: round;stroke-linejoin: round;stroke-width: 2 } 
	</style>
	<g id="SVGRepo_bgCarrier">
	</g>
	<g id="SVGRepo_tracerCarrier">
	</g>
	<g id="SVGRepo_iconCarrier">
		<path id="Layer" fill-rule="evenodd" class="s0" d="m19 9.8l-3.4-3.8c-1.3-1.4-1.9-2.1-2.6-2.3-0.7-0.3-1.3-0.3-2 0-0.7 0.2-1.3 0.9-2.6 2.3l-3.4 3.8m14 6.4c0 1.7 0 2.5-0.3 3.2-0.3 0.5-0.8 1-1.3 1.3-0.7 0.3-1.5 0.3-3.2 0.3h-0.2v-6h-4v6h-0.2c-1.7 0-2.5 0-3.2-0.3-0.5-0.3-1-0.8-1.3-1.3-0.3-0.7-0.3-1.5-0.3-3.2v-4.2h14zm2-4.2l-2-2.2v2.2zm-18 0h2v-2.2z"/>
	</g>
</svg>